# xmcd
#
# Track frame offsets: 
#        182
#        16492
#        38152
#        56462
#        83505
#        102597
#        126517
#        143767
#        163660
#        182097
#        211557
#        248692
#        267642
#
# Disc length: 3953 seconds
#
# Revision: 2
# Processed by: cddbd v1.5.2PL0 Copyright (c) Steve Scherf et al.
# Submitted via: ExactAudioCopy v0.99pb4
#
DISCID=b00f6f0d
DTITLE=Champion Jack Dupree - Champion Jack Dupree
DYEAR=1996
DGENRE=Blues
TTITLE0=Hamhark And Limer Beans
TTITLE1=Let Me In I Am Drunk
TTITLE2=Somebody's Done Changed The Lock
TTITLE3=My Real Combination For Love
TTITLE4=Walkin' The Road
TTITLE5=Phone Call
TTITLE6=(Tell Me) Who Do You Love
TTITLE7=Let's Try Over Again
TTITLE8=Feel Like Rockin'
TTITLE9=Let's Talk It Over Again
TTITLE10=President Reagan
TTITLE11=Ain't Gonna Be A Low Down Dog No More
TTITLE12=I've Lost A Good Man
EXTD=
EXTT0=
EXTT1=
EXTT2=
EXTT3=
EXTT4=
EXTT5=
EXTT6=
EXTT7=
EXTT8=
EXTT9=
EXTT10=
EXTT11=
EXTT12=
PLAYORDER=
